<svg width="21" height="20" viewBox="0 0 21 20" fill="none" xmlns="http://www.w3.org/2000/svg">
<path d="M19.6671 19.6671L14.9421 14.9421M14.9421 14.9421C15.7005 14.1837 16.3021 13.2834 16.7125 12.2925C17.1229 11.3016 17.3342 10.2396 17.3342 9.16708C17.3342 8.09457 17.1229 7.03255 16.7125 6.04168C16.3021 5.0508 15.7005 4.15047 14.9421 3.39208C14.1837 2.6337 13.2834 2.03212 12.2925 1.62168C11.3016 1.21125 10.2396 1 9.16708 1C8.09457 1 7.03255 1.21125 6.04168 1.62168C5.0508 2.03212 4.15047 2.6337 3.39208 3.39208C1.86046 4.92371 1 7.00104 1 9.16708C1 11.3331 1.86046 13.4105 3.39208 14.9421C4.92371 16.4737 7.00104 17.3342 9.16708 17.3342C11.3331 17.3342 13.4105 16.4737 14.9421 14.9421Z" stroke="white" stroke-width="2" stroke-linecap="round" stroke-linejoin="round"/>
</svg>
