<svg width="36" height="36" viewBox="0 0 36 36" fill="none" xmlns="http://www.w3.org/2000/svg">
<path d="M26 0C26.5304 0 27.0391 0.210714 27.4142 0.585786C27.7893 0.960859 28 1.46957 28 2V4H32C33.0092 3.99968 33.9811 4.38081 34.7211 5.06699C35.4611 5.75317 35.9143 6.69369 35.99 7.7L36 8V32C36.0003 33.0092 35.6192 33.9811 34.933 34.7211C34.2468 35.4611 33.3063 35.9143 32.3 35.99L32 36H4C2.99085 36.0003 2.01887 35.6192 1.2789 34.933C0.538941 34.2468 0.0856868 33.3063 0.0100004 32.3L2.00536e-07 32V8C-0.000319158 6.99085 0.380813 6.01887 1.06699 5.2789C1.75318 4.53894 2.69369 4.08569 3.7 4.01L4 4H8V2C8 1.46957 8.21071 0.960859 8.58579 0.585786C8.96086 0.210714 9.46957 0 10 0C10.5304 0 11.0391 0.210714 11.4142 0.585786C11.7893 0.960859 12 1.46957 12 2V4H24V2C24 1.46957 24.2107 0.960859 24.5858 0.585786C24.9609 0.210714 25.4696 0 26 0ZM23.648 12.758L15.164 21.242L12.334 18.414C11.9568 18.0497 11.4516 17.8481 10.9272 17.8527C10.4028 17.8572 9.90118 18.0675 9.53036 18.4384C9.15955 18.8092 8.94921 19.3108 8.94465 19.8352C8.94009 20.3596 9.14168 20.8648 9.506 21.242L13.734 25.472C13.9216 25.6598 14.1444 25.8087 14.3896 25.9104C14.6348 26.012 14.8976 26.0643 15.163 26.0643C15.4284 26.0643 15.6912 26.012 15.9364 25.9104C16.1816 25.8087 16.4044 25.6598 16.592 25.472L26.476 15.586C26.667 15.4015 26.8194 15.1808 26.9242 14.9368C27.029 14.6928 27.0842 14.4304 27.0865 14.1648C27.0888 13.8992 27.0382 13.6359 26.9376 13.3901C26.8371 13.1443 26.6886 12.921 26.5008 12.7332C26.313 12.5454 26.0897 12.3969 25.8439 12.2964C25.5981 12.1958 25.3348 12.1452 25.0692 12.1475C24.8036 12.1498 24.5412 12.205 24.2972 12.3098C24.0532 12.4146 23.8325 12.567 23.648 12.758Z" fill="#202E03"/>
</svg>
