<svg width="17" height="13" viewBox="0 0 17 13" fill="none" xmlns="http://www.w3.org/2000/svg">
<path d="M15.3 0H1.7C0.765 0 0.00849999 0.73125 0.00849999 1.625L0 11.375C0 12.2688 0.765 13 1.7 13H15.3C16.235 13 17 12.2688 17 11.375V1.625C17 0.73125 16.235 0 15.3 0ZM14.96 3.45312L8.9505 7.04437C8.6785 7.20687 8.3215 7.20687 8.0495 7.04437L2.04 3.45312C1.95477 3.40739 1.88013 3.3456 1.82061 3.27149C1.76108 3.19739 1.7179 3.11251 1.69369 3.02199C1.66948 2.93147 1.66473 2.8372 1.67973 2.74487C1.69474 2.65255 1.72919 2.5641 1.78099 2.48487C1.83279 2.40564 1.90088 2.33728 1.98112 2.28393C2.06136 2.23058 2.15209 2.19335 2.24782 2.17449C2.34355 2.15563 2.44229 2.15554 2.53806 2.17421C2.63383 2.19288 2.72464 2.22993 2.805 2.28312L8.5 5.6875L14.195 2.28312C14.2754 2.22993 14.3662 2.19288 14.4619 2.17421C14.5577 2.15554 14.6564 2.15563 14.7522 2.17449C14.8479 2.19335 14.9386 2.23058 15.0189 2.28393C15.0991 2.33728 15.1672 2.40564 15.219 2.48487C15.2708 2.5641 15.3053 2.65255 15.3203 2.74487C15.3353 2.8372 15.3305 2.93147 15.3063 3.02199C15.2821 3.11251 15.2389 3.19739 15.1794 3.27149C15.1199 3.3456 15.0452 3.40739 14.96 3.45312Z" fill="black"/>
</svg>
