<svg width="17" height="17" viewBox="0 0 17 17" fill="none" xmlns="http://www.w3.org/2000/svg">
<path fill-rule="evenodd" clip-rule="evenodd" d="M12.5057 16.9976C11.2796 16.9525 7.80492 16.4724 4.16587 12.8349C0.527673 9.19659 0.0483124 5.72343 0.00233464 4.49676C-0.0657805 2.62738 1.36634 0.811633 3.02069 0.10253C3.2199 0.0165239 3.43806 -0.0162212 3.65376 0.00750781C3.86945 0.0312368 4.07527 0.110625 4.25102 0.237881C5.61332 1.23046 6.55331 2.73209 7.36047 3.91279C7.53807 4.1722 7.614 4.48786 7.57381 4.79964C7.53361 5.11141 7.38009 5.3975 7.1425 5.6034L5.48135 6.83689C5.40109 6.89483 5.3446 6.97992 5.32236 7.07637C5.30013 7.17281 5.31366 7.27404 5.36044 7.36126C5.73678 8.04483 6.40601 9.06294 7.1723 9.82908C7.93945 10.5952 9.00545 11.3086 9.73684 11.7274C9.82854 11.7789 9.93648 11.7933 10.0385 11.7676C10.1405 11.742 10.2287 11.6782 10.2852 11.5895L11.3665 9.944C11.5653 9.67998 11.8586 9.50311 12.1849 9.45042C12.5112 9.39774 12.8452 9.47334 13.1171 9.66138C14.315 10.4905 15.7131 11.4141 16.7365 12.7242C16.8741 12.9012 16.9617 13.1119 16.99 13.3343C17.0183 13.5567 16.9863 13.7826 16.8974 13.9884C16.1848 15.6509 14.3814 17.0665 12.5057 16.9976Z" fill="black"/>
</svg>
