<svg width="60" height="60" viewBox="0 0 60 60" fill="none" xmlns="http://www.w3.org/2000/svg">
<path d="M12.5 23.75C12.5 23.75 6.07125 26.25 5 35M47.5 23.75C47.5 23.75 53.9287 26.25 55 35M22.5 23.75C22.5 23.75 28.5 25.2087 30 32.5C31.5 25.2087 37.5 23.75 37.5 23.75M25 42.5C25 42.5 19.75 43.4375 17.5 50M35 42.5C35 42.5 40.25 43.4375 42.5 50" stroke="black" stroke-width="4" stroke-linecap="round"/>
<path d="M30 45C33.4518 45 36.25 42.2018 36.25 38.75C36.25 35.2982 33.4518 32.5 30 32.5C26.5482 32.5 23.75 35.2982 23.75 38.75C23.75 42.2018 26.5482 45 30 45Z" stroke="black" stroke-width="4" stroke-linecap="round" stroke-linejoin="round"/>
<path d="M42.5 25C46.6421 25 50 21.6421 50 17.5C50 13.3579 46.6421 10 42.5 10C38.3579 10 35 13.3579 35 17.5C35 21.6421 38.3579 25 42.5 25Z" stroke="black" stroke-width="4" stroke-linecap="round" stroke-linejoin="round"/>
<path d="M17.5 25C21.6421 25 25 21.6421 25 17.5C25 13.3579 21.6421 10 17.5 10C13.3579 10 10 13.3579 10 17.5C10 21.6421 13.3579 25 17.5 25Z" stroke="black" stroke-width="4" stroke-linecap="round" stroke-linejoin="round"/>
</svg>
