<svg width="64" height="64" viewBox="0 0 64 64" fill="none" xmlns="http://www.w3.org/2000/svg">
<path d="M2 45.2213C2 44.4121 2.31607 43.6361 2.87868 43.064C3.44129 42.4918 4.20435 42.1704 5 42.1704H14V31.4925L32 19.2891L50 31.4925V42.1704H59C59.7956 42.1704 60.5587 42.4918 61.1213 43.064C61.6839 43.6361 62 44.4121 62 45.2213V58.9501C62 59.7592 61.6839 60.5352 61.1213 61.1074C60.5587 61.6795 59.7956 62.0009 59 62.0009H2V45.2213Z" stroke="black" stroke-width="4" stroke-linejoin="round"/>
<path d="M32 4.03125V19.2855" stroke="black" stroke-width="4" stroke-linecap="round"/>
<path d="M38 62V42.1695H26V62M23 62H41M50 13.1864V4.0339C50 4.0339 47.75 8.61017 41 4.0339C34.25 -0.542373 32 4.0339 32 4.0339V13.1864C32 13.1864 34.25 8.61017 41 13.1864C47.75 17.7627 50 13.1864 50 13.1864Z" stroke="black" stroke-width="4" stroke-linecap="round" stroke-linejoin="round"/>
</svg>
