<svg width="60" height="60" viewBox="0 0 60 60" fill="none" xmlns="http://www.w3.org/2000/svg">
<path d="M15.8333 40C12.6667 40 10 42.6667 10 45.8333C10 49 12.6667 51.6667 15.8333 51.6667C19 51.6667 21.6667 49 21.6667 45.8333C21.6667 42.6667 19 40 15.8333 40ZM15.8333 48.3333C14.5 48.3333 13.3333 47.1667 13.3333 45.8333C13.3333 44.5 14.5 43.3333 15.8333 43.3333C17.1667 43.3333 18.3333 44.5 18.3333 45.8333C18.3333 47.1667 17.1667 48.3333 15.8333 48.3333Z" fill="black"/>
<path d="M39.1663 40C35.9997 40 33.333 42.6667 33.333 45.8333C33.333 49 35.833 51.6667 39.1663 51.6667C42.333 51.6667 44.9997 49 44.9997 45.8333C44.9997 42.6667 42.333 40 39.1663 40ZM39.1663 48.3333C37.833 48.3333 36.6663 47.1667 36.6663 45.8333C36.6663 44.5 37.833 43.3333 39.1663 43.3333C40.4997 43.3333 41.6663 44.5 41.6663 45.8333C41.6663 47.1667 40.4997 48.3333 39.1663 48.3333Z" fill="black"/>
<path d="M54.9997 33.5026V33.3359H54.833L48.9997 24.1693C51.6663 22.6693 53.333 20.0026 53.333 17.1693V16.1693C53.333 11.8359 49.833 8.33594 45.4997 8.33594H31.333C28.1663 8.33594 25.1663 10.3359 23.9997 13.3359H8.33301C5.49967 13.3359 3.33301 15.5026 3.33301 18.3359V46.6693H6.66634V18.3359C6.66634 17.3359 7.33301 16.6693 8.33301 16.6693H26.4997L26.6663 15.3359C27.1663 13.1693 28.9997 11.6693 31.1663 11.6693H45.333C47.9997 11.6693 49.9997 13.6693 49.9997 16.1693V17.0026C49.9997 19.5026 47.9997 21.5026 45.4997 21.5026H39.9997V36.5026H52.9997L53.333 37.0026V41.6693C53.333 42.6693 52.6663 43.3359 51.6663 43.3359H48.333V46.6693H51.6663C54.4997 46.6693 56.6663 44.5026 56.6663 41.6693V36.1693L54.9997 33.5026ZM43.333 33.3359V25.0026H45.833L50.9997 33.3359H43.333Z" fill="black"/>
<path d="M31.667 15H45.0003V18.3333H31.667V15Z" fill="black"/>
<path d="M33.3333 36.6641H36.6667V21.6641H25V46.6641H28.3333V24.9974H33.3333V36.6641Z" fill="black"/>
<path d="M10 33.3307H21.6667V21.6641H10V33.3307ZM13.3333 24.9974H18.3333V29.9974H13.3333V24.9974Z" fill="black"/>
</svg>
